# Blender 5.2.0 LTS
# www.blender.org
mtllib dove_prism.mtl
o Cube.001
v 0.290653 -0.227670 -0.816275
v 0.290653 -0.227670 0.816274
v -0.290653 -0.227670 -0.816275
v -0.290653 -0.227670 0.816274
v 0.290653 0.227670 -0.360934
v -0.290653 0.227670 -0.360934
v 0.290653 0.227670 0.360934
v -0.290653 0.227670 0.360934
vn -0.0000 0.7071 0.7071
vn -0.0000 -1.0000 -0.0000
vn -0.0000 1.0000 -0.0000
vn -0.0000 0.7071 -0.7071
vn -1.0000 -0.0000 -0.0000
vn 1.0000 -0.0000 -0.0000
vt 0.542413 0.586919
vt 0.670607 0.465114
vt 0.709826 0.584826
vt 0.542413 0.667413
vt 0.375000 0.250000
vt 0.375000 0.500000
vt 0.455494 0.500000
vt 0.455494 0.250000
vt 0.629332 0.423838
s 1
usemtl Material.001
f 7/1/1 8/2/1 4/3/1 2/4/1
f 4/3/2 3/5/2 1/6/2 2/4/2
f 5/7/3 6/8/3 8/2/3 7/1/3
f 3/5/4 6/8/4 5/7/4 1/6/4
f 3/5/5 4/3/5 8/9/5 6/8/5
f 1/6/6 5/7/6 7/1/6 2/4/6
