# Blender 5.2.0 LTS
# www.blender.org
mtllib emerald.mtl
o emerald_cut_fixed
v 2.750000 2.750000 2.150000
v 1.650000 3.850000 2.150000
v -1.650000 3.850000 2.150000
v -2.750000 2.750000 2.150000
v -2.750000 -2.750000 2.150000
v -1.650000 -3.850000 2.150000
v 1.650000 -3.850000 2.150000
v 2.750000 -2.750000 2.150000
v 3.875000 3.875000 1.150000
v 2.325000 5.425000 1.150000
v -2.325000 5.425000 1.150000
v -3.875000 3.875000 1.150000
v -3.875000 -3.875000 1.150000
v -2.325000 -5.425000 1.150000
v 2.325000 -5.425000 1.150000
v 3.875000 -3.875000 1.150000
v 5.000000 5.000000 0.150000
v 3.000000 7.000000 0.149998
v -3.000000 7.000000 0.149998
v -5.000000 5.000000 0.150000
v -5.000000 -5.000000 0.150000
v -3.000000 -7.000000 0.150002
v 3.000000 -7.000000 0.150002
v 5.000000 -5.000000 0.150000
v 5.000000 5.000000 -0.150000
v 3.000000 7.000000 -0.150002
v -3.000000 7.000000 -0.150002
v -5.000000 5.000000 -0.150000
v -5.000000 -5.000000 -0.150000
v -3.000000 -7.000000 -0.149998
v 3.000000 -7.000000 -0.149998
v 5.000000 -5.000000 -0.150000
v 3.350000 4.010000 -1.635000
v 2.010000 5.350000 -1.635000
v -2.010000 5.350000 -1.635000
v -3.350000 4.010000 -1.635000
v -3.350000 -4.010000 -1.635000
v -2.010000 -5.350000 -1.635000
v 2.010000 -5.350000 -1.635000
v 3.350000 -4.010000 -1.635000
v 1.700000 3.020000 -3.120000
v 1.020000 3.700000 -3.120000
v -1.020000 3.700000 -3.120000
v -1.700000 3.020000 -3.120000
v -1.700000 -3.020000 -3.120000
v -1.020000 -3.700000 -3.120000
v 1.020000 -3.700000 -3.120000
v 1.700000 -3.020000 -3.120000
v 0.500000 2.300000 -4.200000
v 0.300000 2.500000 -4.200000
v -0.300000 2.500000 -4.200000
v -0.500000 2.300000 -4.200000
v -0.500000 -2.300000 -4.200000
v -0.300000 -2.500000 -4.200000
v 0.300000 -2.500000 -4.200000
v 0.500000 -2.300000 -4.200000
v 0.000000 0.000000 2.150000
v 0.000000 2.000000 -4.650000
v 0.000000 -2.000000 -4.650000
vn -0.0000 -0.0000 1.0000
vn 0.3763 0.3763 0.8466
vn -0.0000 0.5360 0.8442
vn -0.3763 0.3763 0.8466
vn -0.6644 -0.0000 0.7474
vn -0.3763 -0.3763 0.8466
vn -0.0000 -0.5360 0.8442
vn 0.3763 -0.3763 0.8466
vn 0.6644 -0.0000 0.7474
vn 0.7071 0.7071 -0.0000
vn -0.0000 1.0000 -0.0000
vn -0.7071 0.7071 -0.0000
vn -1.0000 -0.0000 -0.0000
vn -0.7071 -0.7071 -0.0000
vn -0.0000 -1.0000 -0.0000
vn 0.7071 -0.7071 -0.0000
vn 1.0000 -0.0000 -0.0000
vn 0.4402 0.4402 -0.7826
vn -0.0000 0.6690 -0.7433
vn -0.4402 0.4402 -0.7826
vn -0.6690 -0.0000 -0.7433
vn -0.4402 -0.4402 -0.7826
vn -0.0000 -0.6690 -0.7433
vn 0.4402 -0.4402 -0.7826
vn 0.6690 -0.0000 -0.7433
s 1
f 57//1 1//1 2//1
f 57//1 2//1 3//1
f 57//1 3//1 4//1
f 57//1 4//1 5//1
f 57//1 5//1 6//1
f 57//1 6//1 7//1
f 57//1 7//1 8//1
f 57//1 8//1 1//1
f 9//2 10//2 2//2 1//2
f 10//3 11//3 3//3 2//3
f 11//4 12//4 4//4 3//4
f 12//5 13//5 5//5 4//5
f 13//6 14//6 6//6 5//6
f 14//7 15//7 7//7 6//7
f 15//8 16//8 8//8 7//8
f 16//9 9//9 1//9 8//9
f 17//2 18//2 10//2 9//2
f 18//3 19//3 11//3 10//3
f 19//4 20//4 12//4 11//4
f 20//5 21//5 13//5 12//5
f 21//6 22//6 14//6 13//6
f 22//7 23//7 15//7 14//7
f 23//8 24//8 16//8 15//8
f 24//9 17//9 9//9 16//9
f 25//10 26//10 18//10 17//10
f 26//11 27//11 19//11 18//11
f 27//12 28//12 20//12 19//12
f 28//13 29//13 21//13 20//13
f 29//14 30//14 22//14 21//14
f 30//15 31//15 23//15 22//15
f 31//16 32//16 24//16 23//16
f 32//17 25//17 17//17 24//17
f 25//18 33//18 34//18 26//18
f 26//19 34//19 35//19 27//19
f 27//20 35//20 36//20 28//20
f 28//21 36//21 37//21 29//21
f 29//22 37//22 38//22 30//22
f 30//23 38//23 39//23 31//23
f 31//24 39//24 40//24 32//24
f 32//25 40//25 33//25 25//25
f 33//18 41//18 42//18 34//18
f 34//19 42//19 43//19 35//19
f 35//20 43//20 44//20 36//20
f 36//21 44//21 45//21 37//21
f 37//22 45//22 46//22 38//22
f 38//23 46//23 47//23 39//23
f 39//24 47//24 48//24 40//24
f 40//25 48//25 41//25 33//25
f 41//18 49//18 50//18 42//18
f 42//19 50//19 51//19 43//19
f 43//20 51//20 52//20 44//20
f 44//21 52//21 53//21 45//21
f 45//22 53//22 54//22 46//22
f 46//23 54//23 55//23 47//23
f 47//24 55//24 56//24 48//24
f 48//25 56//25 49//25 41//25
f 49//25 56//25 59//25 58//25
f 53//21 52//21 58//21 59//21
f 50//18 49//18 58//18
f 51//19 50//19 58//19
f 52//20 51//20 58//20
f 54//22 53//22 59//22
f 55//23 54//23 59//23
f 56//24 55//24 59//24
